<svg width="173px" height="32px" viewBox="0 0 173 32" fill="none" xmlns="http://www.w3.org/2000/svg" transform="rotate(0) scale(1, 1)">
<path fill-rule="evenodd" clip-rule="evenodd" d="M92.0665 13.9775L92.1149 27.9551H98.5411L98.6356 21.573C98.7025 17.051 98.7969 15.0803 98.9592 14.8111C99.379 14.1151 100.482 13.3418 101.219 13.2273C102.669 13.0021 103.953 13.6417 104.56 14.8915C104.947 15.6897 104.97 16.0288 105.03 21.8876L105.092 28.0449H111.52L111.441 21.2584C111.358 14.0458 111.287 13.4251 110.342 11.662C109.769 10.5952 108.523 9.38535 107.432 8.83847C106.568 8.40539 106.285 8.36081 104.4 8.36027C102.548 8.35955 102.205 8.41133 101.259 8.83326C100.675 9.09393 99.8455 9.60881 99.4162 9.97789L98.6356 10.6486V0H92.0181L92.0665 13.9775ZM165.639 4.06706C164.391 4.40306 163.052 4.76117 162.662 4.86274L161.953 5.04755V8.62921H159.307V13.1236H161.928L161.998 18.382C162.057 22.745 162.124 23.7999 162.394 24.5764C162.907 26.0534 163.746 26.965 165.257 27.6854C166.567 28.3101 166.593 28.3144 168.943 28.29C170.244 28.2765 171.564 28.1898 171.876 28.0974L172.443 27.9297L172.495 25.6052L172.548 23.2809H171.046C168.427 23.2809 168.19 22.7513 168.19 16.8901V13.1236H172.727V8.62921H168.19V6.02247C168.19 4.58876 168.127 3.4249 168.049 3.43587C167.971 3.44701 166.886 3.73106 165.639 4.06706ZM10.9447 8.27613C9.6067 8.54166 8.21806 9.28198 7.2923 10.2233L6.43629 11.0938L6.32364 10.5582C6.26165 10.2636 6.21099 9.70894 6.21099 9.32584V8.62921H0.726562L0.775326 18.2921L0.824279 27.9551L3.99015 28.0043L7.15603 28.0536V21.8413C7.15603 14.9634 7.16813 14.8827 8.35245 13.8938C10.0023 12.5158 12.094 13.115 12.7287 15.1473C12.9597 15.8875 13.0153 17.2253 13.0153 22.0552V28.0449H19.2304L19.2888 21.7079C19.3529 14.7301 19.3476 14.7633 20.5744 13.7814C22.1044 12.5568 24.3056 13.2014 24.9515 15.0636C25.1095 15.5187 25.2051 17.6838 25.2531 21.8876L25.3234 28.0449H31.538V21.6787C31.538 14.6769 31.403 13.401 30.471 11.5903C29.1901 9.10238 26.4219 7.79452 23.4129 8.25546C21.7637 8.50805 20.3004 9.22984 19.0722 10.3964C18.4974 10.9426 18.0081 11.2807 17.9661 11.161C17.9247 11.0429 17.6193 10.6069 17.2876 10.1922C16.0753 8.67739 13.2396 7.82076 10.9447 8.27613ZM68.1552 8.28548C66.4702 8.66319 64.778 10.009 64.0371 11.5613L63.6776 12.3146L63.6717 11.4157C63.6685 10.9213 63.6124 10.0922 63.5468 9.57303L63.4275 8.62921H57.9404L58.0642 11.0846C58.1323 12.4351 58.188 16.8036 58.188 20.7925V28.0449H64.6143V22.4662C64.6143 16.4893 64.6678 16.0974 65.6157 15.131C66.4564 14.2738 67.4209 13.9473 69.1032 13.9506L70.6625 13.9538V11.1326C70.6625 8.35901 70.6553 8.30975 70.2373 8.20315C69.6844 8.0622 69.0371 8.08791 68.1552 8.28548ZM42.5216 8.54346C39.0767 9.45978 36.4293 12.1981 35.486 15.8202C35.1148 17.2453 35.165 20.3347 35.5809 21.6629C37.2205 26.8985 42.1725 29.2047 49.4937 28.1417C51.16 27.8997 53.0092 27.4271 53.306 27.1671C53.3757 27.1062 53.2423 26.1663 53.0098 25.0787C52.7013 23.637 52.5135 23.1074 52.3161 23.124C52.1672 23.1365 51.3896 23.2782 50.5884 23.4386C48.7772 23.8013 45.7041 23.8186 44.4967 23.4731C43.2098 23.1047 42.1887 22.4013 41.7482 21.58C41.0239 20.2299 40.6147 20.3146 47.8611 20.3146H54.3557L54.4784 19.0112C54.6364 17.3339 54.3257 15.0197 53.746 13.5551C52.8788 11.3632 51.4624 9.88081 49.3279 8.93052C48.1784 8.4187 47.8909 8.36908 45.8081 8.32288C44.2208 8.28764 43.2343 8.3538 42.5216 8.54346ZM80.9615 8.45231C77.7341 9.06283 75.0212 10.9201 73.6003 13.4921C71.9992 16.3901 71.938 20.3491 73.4481 23.3393C74.1699 24.7685 76.1076 26.5844 77.6558 27.2823C80.3545 28.4985 84.3331 28.7401 87.5787 27.8848C88.8709 27.5441 88.8433 27.6275 88.44 25.2757C88.24 24.1093 88.0408 23.1213 87.9975 23.0799C87.9541 23.0387 87.3765 23.1371 86.7138 23.2985C83.8965 23.9851 81.2468 23.2766 79.9738 21.4963C79.1611 20.3599 78.9199 19.4235 79.0212 17.7978C79.1529 15.6841 79.9815 14.3725 81.7195 13.5272C82.9639 12.9217 84.8625 12.7908 86.5238 13.1957C87.1871 13.3573 87.7624 13.4582 87.8027 13.4199C87.9569 13.2733 88.8076 9.13474 88.7133 8.98984C88.3468 8.42553 83.0465 8.05807 80.9615 8.45231ZM146.692 8.52243C145.597 8.86112 144.101 9.79973 143.439 10.5641L142.89 11.1968L142.784 10.5871C142.716 10.1762 142.665 9.76295 142.629 9.34831L142.58 8.7191L139.762 8.66912L136.944 8.61933L137.069 12.1587C137.137 14.1055 137.193 18.4762 137.193 21.8716V28.0449H143.619V21.8355C143.619 16.0102 143.642 15.5831 143.992 14.9312C144.917 13.2065 147.282 12.6274 148.715 13.7746C149.879 14.7056 149.942 15.1062 150.008 21.8876L150.068 28.0449H156.5L156.422 21.1685C156.34 13.7931 156.304 13.4878 155.289 11.5883C154.701 10.4892 153.354 9.27047 152.158 8.75721C151.037 8.27614 147.921 8.1422 146.692 8.52243ZM113.945 8.96C113.945 9.04306 115.48 12.5302 117.356 16.7094L120.767 24.308L119.502 27.9292C118.806 29.9209 118.198 31.6518 118.15 31.7753C118.083 31.9493 118.766 32 121.179 32H124.294L124.712 31.076C126.001 28.2269 134.547 8.93861 134.547 8.87946C134.547 8.84063 133.161 8.80899 131.467 8.80899H128.386L126.222 13.7413L124.057 18.6736L122.596 14.5053C121.792 12.2129 120.998 9.99335 120.832 9.57303L120.529 8.80899H117.237C115.427 8.80899 113.945 8.87694 113.945 8.96ZM43.54 12.6143C42.7932 13.0071 42.254 13.5881 41.8156 14.4719C41.0209 16.075 40.8668 16 44.9575 16C48.963 16 48.7271 16.0974 48.2697 14.6321C47.9964 13.7571 47.3538 13.0093 46.5293 12.6062C46.0022 12.3486 44.0348 12.354 43.54 12.6143Z" fill="#ffffff"/>
</svg>