<svg width="192px" height="88px" viewBox="0 0 192 88" fill="none" xmlns="http://www.w3.org/2000/svg" transform="rotate(0) scale(1, 1)">
<path d="M105.963 69.4737L105.392 74.7779C105.091 78.0808 104.242 80.0564 102.848 80.7072C102.421 80.8924 101.932 80.9953 101.385 81.0133C100.057 81.0545 99.1286 80.4474 98.5987 79.1947C98.4135 78.7677 98.3106 78.3072 98.2951 77.8159C98.2797 76.4294 99.2881 74.9246 101.318 73.3014C101.374 73.2422 102.797 72.0718 105.585 69.7875C105.722 69.6692 105.85 69.5637 105.963 69.4737ZM11.3645 56.0305C11.0275 53.8234 11.1458 50.2221 11.9844 45.0542C12.3934 42.5255 13.3426 39.7345 14.5208 36.7043C15.596 33.9518 17.0314 31.3023 18.9272 28.9177C19.5909 28.0817 20.6584 26.8032 21.8649 26.7672C22.5337 26.8907 22.9298 28.483 23.0533 31.5415C23.0893 32.6965 23.1022 34.0676 23.0945 35.6573C23.0996 36.7557 23.1099 37.548 23.1254 38.0393C23.2205 41.0619 23.5009 43.6934 23.9717 45.9391C23.2025 52.1771 20.9157 56.3109 18.3433 58.4408C18.3433 58.4408 16.6172 60.2157 14.0963 59.655C12.3934 59.2742 11.5059 56.9591 11.3645 56.0305ZM45.5255 43.5802L45.5127 43.1481C45.3943 39.3384 46.0992 35.5158 47.6272 31.6856C49.3429 27.4129 51.532 24.8611 54.1918 24.0276C54.7372 23.8656 55.2671 23.7781 55.7867 23.7601C56.4787 23.7395 57.1475 23.8759 57.7932 24.1743L57.5822 27.1273C57.397 30.456 56.8054 34.6052 55.8047 39.575C55.2517 42.2503 54.7964 43.8683 54.4388 44.4265C53.8574 45.2831 52.9211 46.2066 51.6221 47.2021C50.3539 48.195 49.2709 48.7198 48.3783 48.7764C48.3526 48.7764 48.3269 48.779 48.3037 48.779C46.6445 48.779 45.721 47.0452 45.5255 43.5802ZM99.0668 42.9088C99.0257 42.505 98.9974 42.1011 98.9871 41.6972C98.8688 37.8876 99.5736 34.0676 101.099 30.2348C102.843 25.9621 105.048 23.4103 107.707 22.5742C108.253 22.4122 108.783 22.3247 109.302 22.3067C109.997 22.3144 110.681 22.4816 111.355 22.8058C110.995 27.9891 110.306 33.1518 109.282 38.2966C108.783 40.8252 108.34 42.3841 107.954 42.9757C107.18 44.0407 106.128 45.0696 104.801 46.0651C103.671 46.9089 102.702 47.3436 101.894 47.3693C101.868 47.3693 101.842 47.3693 101.817 47.3693C100.276 47.3719 99.3601 45.8825 99.0668 42.9088ZM133.94 33.6483C135.288 28.6656 137.246 25.2547 139.818 23.4103C140.809 22.7157 141.807 22.3376 142.818 22.2758C144.233 22.2604 144.976 23.364 145.043 25.5865C145.112 27.809 144.176 29.7589 142.236 31.4386C140.492 32.9666 138.424 33.7666 136.027 33.8412C135.947 33.8438 135.867 33.8438 135.785 33.8438C135.196 33.8489 134.581 33.7821 133.94 33.6483ZM188.719 16.416L169.516 16.6372C167.883 16.6887 166.602 18.052 166.653 19.6855C166.705 21.3189 168.068 22.6 169.702 22.5485H181.769L173.125 34.2014C171.976 35.4258 170.231 35.8966 168.621 35.4129L166.177 34.6824C162.422 33.5583 158.355 34.6541 155.669 37.512L153.593 39.593C153.539 39.6162 151.291 41.8439 150.365 42.7648C148.212 44.9076 146.38 46.3558 141.995 48.069C141.025 48.4471 139.96 48.478 138.913 48.5115L138.846 48.514C136.415 48.388 134.735 46.595 133.92 45.4375C133.313 44.532 132.984 43.2407 132.932 41.5686C132.909 40.7892 132.919 40.1821 132.963 39.7474C133.717 39.8683 134.483 39.9172 135.263 39.8914C139.391 39.7628 142.972 38.3506 146.007 35.6573C149.099 32.9332 150.73 29.6303 150.898 25.7537C150.916 25.4064 150.921 25.0746 150.91 24.7556C150.777 20.4829 148.788 17.8591 144.945 16.8816C143.867 16.6269 142.753 16.5163 141.598 16.5523C137.297 16.6861 133.691 19.153 130.779 23.953C128.387 27.8708 126.967 32.3055 126.514 37.2599C126.432 38.3609 126.409 39.4001 126.437 40.3828C126.483 41.9107 126.627 43.3101 126.864 44.5783C126.329 44.833 125.807 45.1931 125.3 45.6613C123.641 47.1275 120.52 49.5172 114.29 54.4793C116.754 31.6084 117.987 20.1305 117.984 20.043C117.85 17.6199 116.832 16.4237 114.926 16.4546C113.945 16.5137 113.176 16.8996 112.621 17.6096C111.185 16.933 109.529 16.6218 107.651 16.6809C103.35 16.8147 99.7434 19.2662 96.8289 24.0379C94.4391 27.9556 93.0166 32.4058 92.5639 37.3885C92.4842 38.4895 92.4584 39.5287 92.4867 40.5114C92.5304 41.867 92.6411 43.1223 92.8186 44.2799C92.3838 44.5474 91.9182 44.8767 91.4218 45.2677C89.8706 46.4716 88.6796 47.1867 87.8487 47.4156C87.5323 47.4825 87.2314 47.5211 86.9407 47.5314C85.585 47.5725 84.4738 46.7417 83.612 45.0336C83.0281 43.8966 82.7143 42.6645 82.6731 41.3371C82.6114 39.3461 82.8995 34.2374 83.5374 26.0135C83.7407 23.2328 83.8281 21.4244 83.8024 20.5884C83.733 18.3941 83.0307 17.1594 81.6931 16.8842C81.3741 16.8353 81.0551 16.8173 80.7387 16.8276C78.8326 16.8867 77.6956 18.3658 77.3252 21.2675L77.2634 22.0495C77.158 23.2945 76.9728 25.2366 76.7078 27.8733C76.1033 33.5248 75.8332 37.3191 75.8924 39.2535C75.9541 41.2445 76.1599 43.0426 76.5123 44.6452C76.2525 44.5423 75.9978 44.496 75.7534 44.5037C74.8017 44.532 73.5489 45.1494 71.9978 46.3532C70.4184 47.5571 69.1965 48.2594 68.3373 48.46C68.0492 48.5269 67.7765 48.5629 67.5167 48.5732C66.1894 48.6143 65.0936 47.7809 64.2318 46.0754C63.6479 44.9384 63.334 43.7063 63.2929 42.3789C63.2312 40.3879 63.5193 35.2792 64.1598 27.0553C64.363 24.2746 64.4505 22.4662 64.4247 21.6302C64.3604 19.58 63.7019 18.3736 62.4492 18.0083C62.3025 17.926 61.9398 17.8951 61.3636 17.9131C60.3552 17.9723 59.5732 18.3581 59.015 19.0681C57.608 18.389 55.9796 18.0803 54.1327 18.1369C49.8317 18.2707 46.2252 20.7221 43.3107 25.4939C40.9184 29.4116 39.4985 33.8618 39.0457 38.8445C38.966 39.9455 38.9403 40.9847 38.9686 41.9673C39.0226 43.7243 39.1924 45.314 39.4779 46.7339C39.3081 46.8574 39.1332 46.986 38.9557 47.1249C37.3763 48.3288 36.1698 49.0465 35.339 49.2754C35.0226 49.3423 34.7216 49.3809 34.4335 49.3912C32.9904 49.4349 31.8174 48.388 30.9119 46.2503C30.8167 45.9648 30.7216 45.6921 30.6264 45.4349C30.4206 44.8767 30.2431 43.6034 30.0965 41.6201C30.0939 41.4349 30.0888 41.2471 30.0836 41.0619H30.0579C29.9498 39.4773 29.8598 37.4914 29.7852 35.1043C29.7312 33.3448 29.672 31.0065 29.6103 28.0894C29.5974 26.7621 29.5846 25.9235 29.5743 25.5762C29.5074 23.4694 28.5762 21.7948 26.773 20.5498C25.5331 19.7215 24.2057 19.3305 22.7935 19.3742C18.724 19.5286 14.9529 21.6919 12.8873 25.8566C12.9851 24.4083 13.0262 23.4103 13.0108 22.8623C12.9413 20.6681 12.2391 19.4334 10.9014 19.1581C10.5825 19.1093 10.2635 19.0913 9.9471 19.1015C7.98438 19.1633 6.84739 20.7144 6.53871 23.7575C6.54385 23.9299 6.53613 24.1048 6.51041 24.2797C2.66729 62.2736 0.750874 81.4738 0.763736 81.8777C0.810039 83.3491 1.32194 84.4603 2.29687 85.2089C2.82935 85.5973 3.41328 85.78 4.04608 85.7619C5.31683 85.7234 6.34835 84.9825 7.14064 83.542C7.60624 82.6905 7.86605 81.7439 7.92007 80.7021C8.13872 75.9329 8.58117 70.3483 9.24998 63.9457C10.0706 64.7071 11.1947 65.3991 12.2597 65.7412C15.6063 66.8087 19.5961 65.3862 21.7774 63.5315C24.3035 61.3836 26.5466 58.1218 28.0489 54.0626C28.1157 54.1166 28.1826 54.1707 28.2521 54.2221C29.7904 55.3591 31.6399 55.8942 33.8058 55.8247C36.4605 55.7424 39.1023 54.7495 41.7287 52.8485C41.8265 52.779 41.9191 52.7096 42.0143 52.6401C42.521 53.2575 43.0895 53.7822 43.7223 54.217C45.1088 55.1276 46.7243 55.5546 48.5738 55.4954C51.5166 55.4028 54.3771 53.97 57.1501 51.197C57.6543 50.6903 58.1019 50.1861 58.4903 49.6819C60.3347 53.2652 63.0768 55.0144 66.7141 54.9295C69.6569 54.8369 72.4145 53.826 74.9843 51.8993C76.4171 50.7726 77.3792 49.687 77.8731 48.6401C78.4339 49.7616 79.1155 50.7237 79.913 51.5288C81.5824 53.1803 83.6429 53.97 86.097 53.8929C89.0114 53.8028 91.769 52.7919 94.3671 50.8626C94.5678 50.7005 94.7581 50.541 94.9382 50.379C95.5813 51.3565 96.3504 52.1539 97.243 52.7662C98.6295 53.6768 100.245 54.1012 102.092 54.0446C104.199 53.9494 106.197 53.224 108.091 51.8632L107.098 60.3006C102.305 64.1489 98.9382 66.8396 96.9935 68.3727C96.852 68.4936 96.7697 68.5682 96.7414 68.5965L96.6565 68.6428C94.7118 70.1759 93.4076 71.4596 92.7465 72.4911C91.6996 74.1117 91.2134 76.1361 91.288 78.5593C91.3652 81.0134 92.4147 83.205 94.4391 85.1343C96.5511 87.061 98.9356 87.9999 101.59 87.9459C103.841 87.8764 105.884 87.133 107.718 85.7182C109.974 83.915 111.293 81.3606 111.682 78.0551L113.228 63.6627C121.369 57.0234 126.023 53.2729 128.834 50.7571L128.945 50.6542C129.966 52.1796 131.229 53.4041 132.752 54.2555C135.317 55.6884 138.195 55.8247 141.007 55.1713C146.463 53.9031 151.708 50.1886 157.2 44.3442L159.973 41.566C161.123 40.3416 162.867 39.8734 164.477 40.3545L166.921 41.085C170.676 42.2091 174.746 41.1133 177.429 38.2554L186.072 26.6026L185.851 38.5358C185.902 40.1693 187.266 41.4503 188.899 41.3988C190.533 41.3474 191.814 39.984 191.762 38.3506V19.2816C191.713 17.6816 190.399 16.416 188.809 16.416C188.781 16.4134 188.75 16.4134 188.719 16.416Z" fill="url(#paint0_linear_3907_75264)"/>
<path d="M81.2891 12.6019C80.2344 10.3639 78.4029 8.58382 76.1366 7.59089L75.8511 7.46484L76.1315 7.33108C78.3694 6.2764 80.1495 4.44488 81.1424 2.17862L81.2325 1.9754C81.1141 1.58954 80.9855 1.20626 80.8415 0.828125C77.4408 1.08536 74.7578 3.92011 74.7578 7.38767C74.7578 10.9401 77.572 13.8263 81.0884 13.9601C81.2067 13.5999 81.3174 13.2398 81.4151 12.8771L81.2891 12.6019Z" fill="#ffffff"/>
<path d="M81.3473 0.802734C81.1775 0.802734 81.0103 0.815598 80.8457 0.82846C80.9872 1.20917 81.1184 1.58988 81.2367 1.97573L81.2727 1.89342L81.4065 2.17381C82.4611 4.41177 84.2927 6.19185 86.5589 7.18478L86.8445 7.31083L86.5641 7.4446C84.3261 8.49927 82.546 10.3308 81.5531 12.5971L81.427 12.8826L81.4245 12.8774C81.3267 13.2401 81.2161 13.6028 81.0978 13.9604C81.1827 13.963 81.265 13.9733 81.3525 13.9733C81.5943 13.9733 81.8361 13.9578 82.0701 13.9321C82.9679 13.8344 83.8091 13.5565 84.5602 13.1347C86.5744 12.008 87.9377 9.85748 87.9377 7.38543C87.9351 3.75067 84.9846 0.802734 81.3473 0.802734Z" fill="#ffffff"/>
<path opacity="0.3" d="M81.3473 0.802734C81.1775 0.802734 81.0103 0.815598 80.8457 0.82846C80.9872 1.20917 81.1184 1.58988 81.2367 1.97573L81.2727 1.89342L81.4065 2.17381C82.4611 4.41177 84.2927 6.19185 86.5589 7.18478L86.8445 7.31083L86.5641 7.4446C84.3261 8.49927 82.546 10.3308 81.5531 12.5971L81.427 12.8826L81.4245 12.8774C81.3267 13.2401 81.2161 13.6028 81.0978 13.9604C81.1827 13.963 81.265 13.9733 81.3525 13.9733C81.5943 13.9733 81.8361 13.9578 82.0701 13.9321C82.9679 13.8344 83.8091 13.5565 84.5602 13.1347C86.5744 12.008 87.9377 9.85748 87.9377 7.38543C87.9351 3.75067 84.9846 0.802734 81.3473 0.802734Z" fill="#ffffff"/>
<defs>
<linearGradient id="paint0_linear_3907_75264" x1="1.14995" y1="53.6829" x2="193.266" y2="50.9106" gradientUnits="userSpaceOnUse">
<stop offset="0.032" stop-color="#ffffff" data-originalstopcolor="#ffffff"/>
<stop offset="0.729" stop-color="#ffffff" data-originalstopcolor="#ffffff"/>
<stop offset="1" stop-color="#ffffff" data-originalstopcolor="#ffffff"/>
</linearGradient>
</defs>
</svg>